# xmcd CD database file
#
# Track frame offsets:
#	150
#	26245
#	56245
#	89833
#	112500
#	132963
#	155765
#	175345
#	193848
#	218950
#	239440
#	290133
#
# Disc length: 4190 seconds
#
# Revision: 1
# Processed by: cddbd v1.5.1PL0 Copyright (c) Steve Scherf et al.
# Submitted via: CDex 1.51
#
DISCID=bd105c0c
DTITLE=Humphrey Littleton and his band - Beano Boogie
DYEAR=1989
DGENRE=Jazz
TTITLE0=Say Forward, I'll march
TTITLE1=Ficklefanny strikes again
TTITLE2=Apple honey
TTITLE3=Do you call that a buddy?
TTITLE4=Sixth form
TTITLE5=Yorkville
TTITLE6=Beano Boogie
TTITLE7=The little King
TTITLE8=Echoes of the jungle
TTITLE9=Gnasher and Me
TTITLE10=The strange Mr. Peter Charles/copout
TTITLE11=In swinger
EXTD=YEAR: 1989
EXTT0=
EXTT1=
EXTT2=
EXTT3=
EXTT4=
EXTT5=
EXTT6=
EXTT7=
EXTT8=
EXTT9=
EXTT10=
EXTT11=
PLAYORDER=
